<?xml version="1.0" encoding="UTF-8"?>
<svg id="Layer_2" data-name="Layer 2" xmlns="http://www.w3.org/2000/svg" viewBox="0 0 237.37 315.2">
  <defs>
    <style>
      .cls-1 {
        fill: #fcc513;
      }

      .cls-2 {
        fill: #efe0d4;
      }

      .cls-3 {
        fill: #112547;
      }

      .cls-4 {
        fill: #030910;
      }
    </style>
  </defs>
  <g id="Layer_1-2" data-name="Layer 1">
    <g>
      <path class="cls-4" d="M213.08,265.32c1.5.81,2.85,1.42,4.07,2.21,6.29,4.07,7.32,10.39,2.65,16.19-1.81,2.24-3.94,4.15-6.29,5.8-5.55,3.9-12.2,5.6-18.03,8.98-1.33.77-3.33,1.11-4.81.76-2.72-.64-4.86.06-7.24,1.24-7.01,3.47-13.41,2.17-19.13-3.02-1.32-1.2-2.74-2.28-4.24-3.52-.58.89-1.33,2.13-2.14,3.31-5.29,7.71-12.05,13.36-21.48,15.3-6.48,1.34-12.59.47-18.21-3.05-1.42-.89-2.33-1.27-3.78.08-1.65,1.54-3.91,2.23-6.11,2.77-6.46,1.6-12.84,1.12-19.14-.84-3.87-1.2-6.76-3.81-9.44-6.77-2.24,1.72-4.3,3.49-6.53,4.99-7.21,4.83-15.12,6.51-23.66,4.77-5.66-1.16-10.44-3.89-13.87-8.59-1.07-1.47-2.06-1.77-3.76-1.44-15.4,2.99-34.2-12.31-26.79-32.49,2.09-5.7,5.96-9.77,12.3-10.66,1.9-.27,2.41-.93,2.32-2.84-.3-6.27,1.27-11.99,6.03-16.39,1.64-1.52,1.06-2.76.47-4.39-3.03-8.34-6.14-16.65-8.03-25.35-2.47-11.35-4.07-22.82-4.53-34.42-.17-4.36.32-8.7,1.28-12.99,1.01-4.52,3.81-7.03,8.18-7.97,6.54-1.41,13.12-1.77,19.72-.46,4.11.81,8.2,1.69,12.42,2.56.68-2.2.48-4.15.56-6.06.97-26.17,5.11-51.79,13.46-76.64,5.54-16.49,12.89-32.1,24.08-45.64,3.38-4.09,7.11-7.78,11.48-10.79,1.6-1.11,3.26-2.2,5.02-3.02,5.41-2.52,10.58-2.71,15.66,1.21,4.38,3.37,7.87,7.38,10.7,12.07,4.23,7,7.21,14.56,9.78,22.26,5.97,17.83,11.64,35.75,14.9,54.33,2.32,13.2,3.77,26.51,5.14,39.84.15,1.48-.09,3.03.78,4.4,1.32.55,1.85-.68,2.6-1.24,4.58-3.44,9.21-6.78,14.53-9.02,2.5-1.05,5.06-1.87,7.76-2.28,6.35-.96,10.4,1.4,12.43,7.62,2.16,6.62,3.4,13.45,3.26,20.42-.39,19-2.03,37.86-6.68,56.36-.15.58-.19,1.21-.42,1.75-.89,2.15-.3,3.16,2.09,3.68,13.64,2.95,20.54,20.68,13.15,32.59-.85,1.38-1.62,2.81-2.52,4.39ZM70.43,219.93c-.11,1.95-.18,3.45-.28,4.94-.5,7.95-2.5,15.4-7.03,22.08-2.18,3.21-3.96,3.34-6.53.29-5.57-6.61-13.77-8.63-21.54-5.32-9.45,4.03-12.87,13.24-8.18,22.14.6,1.14,1.08,2.18.03,3.28-.99,1.03-2.17.98-3.3.35-2.97-1.67-5.93-2.12-8.96-.22-1.97,1.24-3.34,3-4.35,5.07-3.19,6.59-1.96,15.14,2.99,20.69,5.02,5.63,13.76,8.02,20.56,5.61,3.23-1.14,3.6-1.12,4.68,1.89,1.05,2.89,3.09,4.78,5.52,6.32,4.22,2.67,8.87,3.54,13.83,3.1,7.61-.68,13.58-4.45,18.87-9.67,2.98-2.94,4.53-2.85,6.78.61,2.3,3.52,5.48,5.55,9.44,6.39,4.29.92,8.64,1.17,13.01.36,1.8-.33,3.44-1.05,5.07-1.82,1.22-.58,2.1-1.21,1.08-2.71-.32-.47-.42-1.13-.5-1.71-.19-1.48.18-2.77,1.76-3.22,1.39-.39,2.26.45,2.82,1.65,2.49,5.43,7.2,7.37,12.69,7.96,6.46.7,12.2-1.27,17.28-5.18,4.36-3.36,7.68-7.6,10.01-12.61.51-1.09.93-2.24,1.6-3.23,1.54-2.27,3.42-2.28,5.03-.02.86,1.22,1.42,2.65,2.26,3.9,4.58,6.79,10.92,8.29,18.01,4.31,2.8-1.58,5.21-3.56,6.58-6.59.71-1.58,1.62-3.06,3.73-2.32,1.54.54,1.71,2.16.66,4.7-.4.98-1.33,1.82-.97,4.42,4.97-5.57,11.72-5.9,16.92-9.44,1.99-1.36,3.85-2.9,5.44-4.73,3.53-4.05,2.75-7.73-2.13-10.14-.54-.26-1.12-.45-1.69-.61-4.5-1.27-4.84-4.63-2.69-8.09,1.19-1.91,2.4-3.84,3.32-5.89,4.36-9.73-1.56-21.4-11.94-23.58-6.03-1.26-11.95-.74-17.71,1.45-4.53,1.72-8.76,3.8-12,7.68-2.16,2.59-3.35,2.28-4.76-.81-.59-1.28-1.53-2.22-2.35-3.27-5.22-6.68-8.96-13.91-8.61-22.71.02-.62-.1-1.19-1.03-1.64-4.54,2.21-9.58,3.6-14.71,4.82-8.8,2.1-17.78,3.01-26.7,4.11-13.9,1.72-27.86,2.63-42-2.6ZM94.66,171.85c9.09.58,16.4-.58,23.71-1.47,14.33-1.74,27.15-7.45,39.3-15,3.06-1.9,4.17-4.18,3.66-7.83-1.36-9.68-2.32-19.42-3.55-29.13-2.28-17.83-6.95-35.09-12.41-52.17-.6-1.88-1.61-2.95-3.4-3.81-6.79-3.26-14.02-4.37-21.41-4.94-13.47-1.04-25.92,2.43-37.89,8.3-3.42,1.68-6.1,3.63-7.03,7.57-.52,2.18-1.59,4.22-2.27,6.37-8.17,25.72-12.04,52.14-12.83,79.06-.06,1.88.63,3.22,2.18,4.14,1.42.84,2.89,1.61,4.37,2.33,9.24,4.44,19.01,6.59,27.57,6.59ZM167.48,181.57c-.63,5.36-.07,10.87-1.48,16.13-.99,3.71-1.07,6.92,1.77,9.93,1.09,1.15,1.74,2.82,2.3,4.36,1.92,5.21,4.01,10.37,5.45,15.75.96,3.58.99,3.6,4.26,2.29,3.51-1.4,7.11-2.49,10.89-2.64,4.52-.18,3.88-.13,4.91-4.26,4.8-19.2,6.79-38.73,6.75-58.5-.01-5.47-1.06-10.75-2.58-15.96-1.43-4.93-3.35-6.14-8.27-5.13-1.75.36-3.46.99-5.13,1.67-6.35,2.58-11.73,6.64-16.83,11.13-1.83,1.61-2.61,3.34-2.52,5.87.23,6.45.89,12.9.45,19.38ZM55.24,179.13c-.09-1.95-.11-3.91-.28-5.86-.26-2.97,1.3-6.65-.63-8.72-1.87-2-5.63-1.63-8.53-2.4-6.66-1.76-13.33-1.99-20.11-.7-3.52.67-5.54,2.34-6.2,6.02-.83,4.64-.98,9.27-.65,13.94.68,9.46,1.99,18.84,3.89,28.14,1.79,8.73,4.83,17.06,7.84,25.41.5,1.39.94,3.1,3.08,2.17,4.13-1.79,8.44-2.06,12.84-1.51,1.6.2,2.19-.44,2.18-1.96-.03-3.01-.08-6.02-.01-9.03.17-7.85,1.31-15.37,7.93-20.75,1.14-.92,1.21-2.06.86-3.25-2.08-7.03-1.88-14.28-2.2-21.48ZM81.42,60.49c19.58-9.6,39.56-10.65,59.8-4.12.66-.6.53-1.07.4-1.46-2.8-8.27-5.88-16.42-10.62-23.83-1.8-2.81-3.83-5.44-6.49-7.45-5.55-4.18-8.19-4.86-14.75-.98-2.31,1.37-4.51,3.04-6.46,4.89-9.76,9.23-16.56,20.49-21.88,32.96ZM76.36,174.21c.21,5.76.34,10.96,1.06,16.17,1.13,8.18,2.14,16.37,3.69,24.49.42,2.22,1.32,3.5,3.83,3.43,2.55-.07,5.1.23,7.66.27,3.04.05,3.24-.11,2.78-2.98-1.95-12.02-3.08-24.13-4.3-36.23-.21-2.06-1.03-2.97-2.98-3.12-3.75-.28-7.4-1.11-11.74-2.04ZM129.38,173.57c-3.59.55-6.99,1.07-10.4,1.6-3.45.54-3.49.55-3.4,4.33.22,9.32.47,18.63.73,27.95.06,2.1.27,4.2.32,6.31.05,2.38,1.21,3.12,3.46,2.72,2.96-.53,5.92-1.07,8.9-1.4,2.27-.25,2.62-1.54,2.39-3.42-.96-8.09-.38-16.23-.65-24.34-.15-4.5.1-9.01-1.36-13.75ZM136,213.71c4-.67,6.89-1.35,9.78-2.18,2.66-.76,3.47-2.18,3.4-4.86-.25-10.52-.29-21.05-.41-31.57-.03-2.26-.06-4.51-.1-6.77-.02-1.47-.78-1.83-2.05-1.31-3.47,1.43-6.91,2.94-10.41,4.3-1.45.57-1.67,1.58-1.5,2.86,1.34,9.86,1.11,19.79,1.27,29.7.05,3.14,0,6.28,0,9.82ZM95.83,176.63c1.1,12.17,2.24,23.52,3.92,34.8,1.15,7.75,1.23,7.63,8.99,6.51,2.46-.35,3.3-1.23,3.08-3.69-.57-6.28-.88-12.58-.83-18.9.04-5.26-.11-10.52-.28-15.78-.09-2.9-.29-2.97-3.16-2.95-3.74.03-7.48,0-11.72,0ZM76.23,216.42c-.85-5.36-1.73-10.35-2.42-15.37-1.21-8.77-2.21-17.57-2.57-26.42-.05-1.27-.14-2.38-1.5-2.95-3.01-1.26-6.01-2.55-9.11-3.88-.22.63-.48,1.02-.47,1.41.23,11.24-.1,22.47,2.73,33.56,1.85,7.24,6.25,11.24,13.35,13.65ZM154.17,206.03c1.42.45,1.94-.19,2.51-.63,3.69-2.82,4.37-6.98,4.89-11.2,1.37-11.22.81-22.48.63-33.73,0-.62-.12-1.18-.98-1.43-1.82,1.1-3.68,2.37-5.67,3.39-1.7.87-2.21,1.97-2.14,3.92.36,9.75.55,19.5.76,29.25.07,3.54.01,7.07.01,10.43ZM59.68,208.15c-3.88,3.13-5.2,6.83-5.62,10.95-.42,4.19.12,8.46-.39,12.59-.63,5.06,1.46,8.2,5.42,10.64.22.13.54.09.82.13,4.74-6.37,5.62-17.49,5.38-23.74-.06-1.7-.66-3.1-2.07-4.27-1.74-1.46-2.83-3.47-3.54-6.31ZM161.48,207.9c-.49.63-.87.93-1,1.31-2.59,7.4,1.54,21.68,7.63,26.52,1.12.89,3.07.12,3.38-1.49.16-.84,0-1.8-.19-2.66-1.52-6.75-4.03-13.16-6.7-19.52-.62-1.48-1.38-3-3.12-4.17Z"/>
      <path class="cls-4" d="M223.66,0c1.86.14,3.97.12,6,.8,3.31,1.12,3.87,2.95,1.6,5.62-.58.68-1.31,1.23-2.02,1.78-9.95,7.7-7.88,22.09,3.17,28.09,1.18.64,2.52,1.03,3.63,1.77,1.7,1.13,1.78,3.05.1,4.01-7.76,4.44-15.82,7.28-24.9,4.41-11.77-3.73-17.91-15.35-14.31-27.17C200.43,7.85,211.4-.14,223.66,0ZM228.92,40.16c-6.27-4.33-9.96-9.63-10.9-16.52-.97-7.11,1.73-13.12,6.77-18.58-10.28-.18-18.73,5.11-22.32,13.45-4.52,10.49.83,21.13,11.95,23.69,4.7,1.08,9.21.39,14.51-2.05Z"/>
      <path class="cls-4" d="M198.12,101.91c-.81-3.07-1.74-6.07-2.36-9.13-.66-3.25,1.42-4.86,4.51-3.55,1.78.76,3.39,1.93,5.11,2.83,3.68,1.91,3.17,2.77,6.3-.73.3-.34.62-.65.95-.96,1.27-1.16,2.65-2.14,4.43-1.22,1.68.87,2.1,2.48,1.98,4.22-.11,1.64-.32,3.28-.56,4.91-.2,1.33-.42,2.68-.79,3.97-.38,1.33-.29,2.33,1.11,2.96.54.24,1.03.62,1.5.99,1.42,1.14,2.97,2.29,2.39,4.42-.52,1.89-2.25,2.45-3.89,2.53-4.24.22-6.86,2.35-8.35,6.23-.42,1.09-1.24,2.05-1.99,2.98-.88,1.09-1.98,1.94-3.5,1.42-1.4-.48-2.19-1.59-2.37-3.03-.21-1.64-.33-3.29-.39-4.94-.06-1.59-.68-2.4-2.36-2.65-2.21-.33-4.45-.78-6.54-1.56-3.21-1.2-3.65-4.1-.93-6.21,1.75-1.36,3.8-2.33,5.75-3.5ZM207.4,115.11c1.49-3.57,2.75-5.93,6.18-5.8-4.02-3.99.77-7.92-.62-11.7-4.07,4.03-7.3-.49-11.01-1.37.24,2.42,1.27,4.1,1.9,5.91,1.04,2.96.7,3.64-2.26,4.55-.74.23-1.69-.08-2.56,1.25,3.87.7,7.87,1.12,8.36,7.16Z"/>
      <path class="cls-4" d="M5.17,103.64c2.28.01,3.87,1.47,5.6,2.65q3.48,2.38,6.76-.19c.59-.46,1.17-.96,1.81-1.35,2.88-1.75,4.88-.66,5.09,2.76.04.6,0,1.21-.07,1.8-.17,1.49.41,2.24,1.97,2.27,1.35.03,2.72.08,4.04.35,2.82.58,3.64,2.99,1.51,4.92-1.99,1.8-4.26,3.36-6.62,4.64-2.45,1.33-3.83,3.09-4.3,5.84-.3,1.75-1.03,3.44-1.69,5.11-.58,1.47-1.56,2.64-3.33,2.56-1.73-.07-2.61-1.31-3.28-2.72-.13-.27-.28-.56-.31-.84-.37-4.72-3.25-5.71-7.34-5.05-.7.11-1.5-.1-2.21-.33-2.9-.94-3.63-3.15-1.82-5.56.54-.71,1.17-1.42,1.92-1.89,1.55-.99,1.67-2.17,1.16-3.85-.74-2.43-1.35-4.94-1.7-7.46-.34-2.44.74-3.63,2.8-3.7ZM23.56,116.84c-2.82-.85-3.83-2.79-4.58-5.43-3.69,3.9-6.99,1.68-10.49-.27-.16,3.68,4,6.39.6,9.8,4.36.35,4.33.27,7.24,4.47-.1-5,3.56-6.46,7.23-8.58Z"/>
      <path class="cls-4" d="M49.57,12.79c-.05.67,0,1.15-.13,1.57-1.14,3.63-.71,6.26,3.12,8.43,3.21,1.82,2.67,5.98-.96,6.88-5.92,1.46-9.16,5.06-11.17,10.41-.55,1.46-1.73,2.5-3.48,2.38-1.84-.13-2.43-1.61-2.9-3.05-.42-1.28-.95-2.65-.86-3.94.19-2.86-1.44-3.6-3.75-3.87-.74-.09-1.5-.23-2.19-.49-1.89-.72-3.66-1.74-3.82-3.99-.15-2.1,1.32-3.42,3.1-3.96,2.86-.87,3.1-2.81,2.74-5.24-.2-1.33-.47-2.69-.4-4.02.12-2.31,2.07-3.93,3.99-2.81,4.46,2.61,7.82,2.17,10.86-2.1.85-1.19,2.56-1.6,4.11-.75,1.96,1.07,1.69,2.99,1.72,4.56ZM43.59,17.03c-2.97,4.28-6.15,1.06-9.15.44-.57,2.21.6,3.86.59,5.65-.01,2.13-2.16,2.35-3.57,3.36q5.56,2.24,7.02,6.16c1.63-4.44,5.78-5.13,9.63-7.19-3.75-1.68-5.08-4.39-4.52-8.41Z"/>
      <path class="cls-1" d="M70.43,219.93c14.14,5.23,28.1,4.31,42,2.6,8.93-1.1,17.9-2.01,26.7-4.11,5.13-1.22,10.17-2.61,14.71-4.82.93.45,1.06,1.02,1.03,1.64-.35,8.79,3.39,16.03,8.61,22.71.82,1.06,1.77,1.99,2.35,3.27,1.41,3.09,2.6,3.4,4.76.81,3.24-3.87,7.47-5.95,12-7.68,5.76-2.19,11.68-2.72,17.71-1.45,10.39,2.18,16.31,13.86,11.94,23.58-.92,2.05-2.13,3.98-3.32,5.89-2.15,3.46-1.8,6.82,2.69,8.09.58.16,1.16.35,1.69.61,4.88,2.41,5.66,6.09,2.13,10.14-1.59,1.82-3.45,3.37-5.44,4.73-5.2,3.54-11.94,3.87-16.92,9.44-.35-2.6.57-3.44.97-4.42,1.05-2.54.88-4.16-.66-4.7-2.11-.74-3.02.74-3.73,2.32-1.37,3.03-3.77,5.02-6.58,6.59-7.09,3.98-13.43,2.48-18.01-4.31-.84-1.24-1.4-2.68-2.26-3.9-1.61-2.27-3.49-2.26-5.03.02-.67.99-1.09,2.14-1.6,3.23-2.33,5.01-5.65,9.24-10.01,12.61-5.08,3.91-10.82,5.88-17.28,5.18-5.49-.59-10.2-2.53-12.69-7.96-.55-1.21-1.42-2.05-2.82-1.65-1.58.44-1.95,1.74-1.76,3.22.07.59.18,1.25.5,1.71,1.03,1.51.15,2.13-1.08,2.71-1.63.77-3.28,1.49-5.07,1.82-4.36.81-8.71.56-13.01-.36-3.96-.85-7.15-2.87-9.44-6.39-2.25-3.45-3.8-3.55-6.78-.61-5.29,5.22-11.26,9-18.87,9.67-4.96.44-9.61-.43-13.83-3.1-2.43-1.54-4.48-3.43-5.52-6.32-1.09-3-1.46-3.03-4.68-1.89-6.81,2.4-15.54.02-20.56-5.61-4.95-5.55-6.18-14.1-2.99-20.69,1-2.08,2.38-3.84,4.35-5.07,3.02-1.91,5.99-1.45,8.96.22,1.13.63,2.31.69,3.3-.35,1.05-1.09.57-2.14-.03-3.28-4.69-8.91-1.27-18.11,8.18-22.14,7.77-3.32,15.97-1.29,21.54,5.32,2.58,3.06,4.36,2.92,6.53-.29,4.53-6.68,6.53-14.14,7.03-22.08.09-1.49.17-2.99.28-4.94ZM78.68,258.1c-10.63-.48-21.62,6.31-25.79,15.63-.62,1.39-1.2,2.76-1.04,4.32.12,1.17.75,1.98,1.92,2.2.98.19,1.78-.26,2.29-1.07.31-.49.47-1.09.66-1.65,1.82-5.45,5.62-9.15,10.52-11.82,8.59-4.66,14.55-3.62,21.21,3.63.99,1.07,2.01,2,3.46,1.09,1.63-1.03,1.31-2.59.56-3.98-.86-1.6-2.23-2.8-3.59-4.01-2.14-1.91-2.12-2.75-.14-4.6,1.64-1.53,3.68-2.04,5.8-2.05,1.49,0,2.97.35,4.46.54,1.47.19,2.8-.05,3.16-1.73.34-1.63-.72-2.41-2.09-2.99-5.18-2.21-12.63-.59-15.94,4.06-1.65,2.31-3.17,3.37-5.46,2.44ZM144.51,251.71c-6.32-.04-10.81,1.33-14.37,3.87-1.23.88-2.37,1.85-3.17,3.14-.87,1.4-1.21,2.86.32,3.98,1.38,1.02,2.59.33,3.47-.86,1.3-1.75,3.04-2.85,4.98-3.73,6.71-3.02,14.94-1.36,20.28,4.08,1.58,1.62,2.85,3.46,3.99,5.41.77,1.3,2,1.9,3.43,1.06,1.24-.72,1.23-1.98.86-3.19-.22-.7-.58-1.38-.98-2.01-4.77-7.52-11.57-11.5-18.81-11.77Z"/>
      <path class="cls-2" d="M94.66,171.85c-8.56,0-18.33-2.15-27.57-6.59-1.49-.71-2.95-1.49-4.37-2.33-1.54-.91-2.23-2.25-2.18-4.14.8-26.92,4.66-53.34,12.83-79.06.68-2.15,1.75-4.19,2.27-6.37.93-3.93,3.61-5.89,7.03-7.57,11.97-5.87,24.42-9.34,37.89-8.3,7.39.57,14.62,1.68,21.41,4.94,1.79.86,2.79,1.92,3.4,3.81,5.46,17.08,10.14,34.34,12.41,52.17,1.24,9.7,2.19,19.44,3.55,29.13.51,3.65-.6,5.93-3.66,7.83-12.14,7.55-24.96,13.26-39.3,15-7.32.89-14.62,2.05-23.71,1.47ZM109.19,140c10.45.08,20.21-4.08,26.97-11.51,11.74-12.9,10.12-32-3.62-42.61-15.23-11.76-39.05-8.27-50.25,7.36-9.29,12.96-6.78,30.08,5.89,39.79,6.18,4.74,13.24,6.96,21.01,6.97Z"/>
      <path class="cls-3" d="M167.48,181.57c.44-6.47-.22-12.92-.45-19.38-.09-2.52.69-4.25,2.52-5.87,5.1-4.49,10.48-8.55,16.83-11.13,1.66-.68,3.38-1.31,5.13-1.67,4.92-1.01,6.83.2,8.27,5.13,1.51,5.21,2.57,10.5,2.58,15.96.04,19.77-1.95,39.3-6.75,58.5-1.03,4.13-.39,4.08-4.91,4.26-3.79.15-7.38,1.24-10.89,2.64-3.27,1.31-3.3,1.29-4.26-2.29-1.44-5.38-3.53-10.54-5.45-15.75-.57-1.54-1.21-3.2-2.3-4.36-2.84-3.01-2.77-6.22-1.77-9.93,1.41-5.26.85-10.76,1.48-16.13Z"/>
      <path class="cls-3" d="M55.24,179.13c.32,7.2.12,14.45,2.2,21.48.35,1.19.28,2.33-.86,3.25-6.62,5.39-7.75,12.9-7.93,20.75-.07,3.01-.02,6.02.01,9.03.02,1.52-.58,2.16-2.18,1.96-4.39-.55-8.7-.28-12.84,1.51-2.15.93-2.58-.78-3.08-2.17-3-8.35-6.05-16.68-7.84-25.41-1.9-9.3-3.21-18.67-3.89-28.14-.33-4.66-.19-9.29.65-13.94.66-3.68,2.68-5.35,6.2-6.02,6.78-1.29,13.45-1.06,20.11.7,2.9.77,6.65.39,8.53,2.4,1.93,2.07.38,5.75.63,8.72.17,1.95.19,3.91.28,5.86Z"/>
      <path class="cls-3" d="M81.42,60.49c5.32-12.47,12.12-23.73,21.88-32.96,1.95-1.85,4.15-3.52,6.46-4.89,6.56-3.88,9.2-3.2,14.75.98,2.66,2.01,4.7,4.64,6.49,7.45,4.73,7.41,7.81,15.56,10.62,23.83.13.39.26.87-.4,1.46-20.24-6.52-40.22-5.48-59.8,4.12Z"/>
      <path class="cls-3" d="M76.36,174.21c4.33.93,7.99,1.76,11.74,2.04,1.96.15,2.78,1.06,2.98,3.12,1.22,12.1,2.34,24.21,4.3,36.23.47,2.86.26,3.03-2.78,2.98-2.55-.04-5.11-.35-7.66-.27-2.51.07-3.41-1.21-3.83-3.43-1.55-8.12-2.56-16.31-3.69-24.49-.72-5.22-.85-10.42-1.06-16.17Z"/>
      <path class="cls-3" d="M129.38,173.57c1.46,4.74,1.21,9.26,1.36,13.75.27,8.11-.31,16.25.65,24.34.22,1.88-.12,3.17-2.39,3.42-2.98.33-5.95.86-8.9,1.4-2.24.4-3.41-.34-3.46-2.72-.04-2.1-.26-4.2-.32-6.31-.26-9.32-.52-18.63-.73-27.95-.09-3.79-.04-3.8,3.4-4.33,3.4-.53,6.81-1.05,10.4-1.6Z"/>
      <path class="cls-3" d="M136,213.71c0-3.54.05-6.68,0-9.82-.17-9.91.07-19.84-1.27-29.7-.18-1.29.05-2.3,1.5-2.86,3.5-1.37,6.94-2.87,10.41-4.3,1.27-.52,2.03-.16,2.05,1.31.04,2.26.07,4.51.1,6.77.12,10.53.16,21.05.41,31.57.06,2.69-.75,4.1-3.4,4.86-2.89.83-5.78,1.51-9.78,2.18Z"/>
      <path class="cls-3" d="M95.83,176.63c4.24,0,7.98.02,11.72,0,2.87-.02,3.07.05,3.16,2.95.17,5.26.32,10.52.28,15.78-.05,6.32.27,12.62.83,18.9.22,2.46-.62,3.34-3.08,3.69-7.77,1.12-7.84,1.24-8.99-6.51-1.68-11.28-2.82-22.63-3.92-34.8Z"/>
      <path class="cls-3" d="M76.23,216.42c-7.09-2.42-11.5-6.41-13.35-13.65-2.83-11.09-2.51-22.32-2.73-33.56,0-.39.25-.78.47-1.41,3.11,1.32,6.1,2.61,9.11,3.88,1.36.57,1.45,1.68,1.5,2.95.36,8.85,1.35,17.65,2.57,26.42.69,5.01,1.57,10,2.42,15.37Z"/>
      <path class="cls-3" d="M154.17,206.03c0-3.36.06-6.9-.01-10.43-.2-9.75-.39-19.5-.76-29.25-.07-1.94.44-3.05,2.14-3.92,1.99-1.02,3.85-2.29,5.67-3.39.86.25.97.81.98,1.43.18,11.25.75,22.51-.63,33.73-.52,4.22-1.19,8.37-4.89,11.2-.56.43-1.08,1.07-2.51.63Z"/>
      <path class="cls-1" d="M228.92,40.16c-5.3,2.44-9.81,3.13-14.51,2.05-11.12-2.56-16.47-13.2-11.95-23.69,3.6-8.35,12.05-13.63,22.32-13.45-5.03,5.46-7.74,11.47-6.77,18.58.94,6.89,4.62,12.19,10.9,16.52Z"/>
      <path class="cls-1" d="M207.4,115.11c-.49-6.04-4.49-6.47-8.36-7.16.87-1.32,1.82-1.02,2.56-1.25,2.96-.9,3.3-1.58,2.26-4.55-.63-1.81-1.66-3.5-1.9-5.91,3.71.88,6.94,5.39,11.01,1.37,1.39,3.78-3.41,7.71.62,11.7-3.43-.13-4.7,2.23-6.18,5.8Z"/>
      <path class="cls-1" d="M23.56,116.84c-3.67,2.12-7.33,3.58-7.23,8.58-2.92-4.2-2.88-4.12-7.24-4.47,3.41-3.4-.76-6.12-.6-9.8,3.5,1.95,6.8,4.16,10.49.27.75,2.64,1.76,4.58,4.58,5.43Z"/>
      <path class="cls-1" d="M43.59,17.03c-.56,4.02.77,6.73,4.52,8.41-3.85,2.06-8.01,2.74-9.63,7.19q-1.46-3.91-7.02-6.16c1.42-1.02,3.56-1.24,3.57-3.36.01-1.78-1.16-3.43-.59-5.65,2.99.62,6.18,3.85,9.15-.44Z"/>
      <path class="cls-4" d="M78.68,258.1c2.3.93,3.81-.13,5.46-2.44,3.31-4.65,10.77-6.27,15.94-4.06,1.37.58,2.43,1.36,2.09,2.99-.36,1.68-1.68,1.92-3.16,1.73-1.49-.19-2.97-.54-4.46-.54-2.13,0-4.16.52-5.8,2.05-1.98,1.85-2,2.69.14,4.6,1.35,1.21,2.73,2.4,3.59,4.01.75,1.39,1.07,2.96-.56,3.98-1.45.91-2.47-.02-3.46-1.09-6.66-7.25-12.63-8.29-21.21-3.63-4.91,2.66-8.7,6.37-10.52,11.82-.19.56-.35,1.16-.66,1.65-.51.81-1.32,1.26-2.29,1.07-1.17-.23-1.8-1.03-1.92-2.2-.16-1.55.42-2.93,1.04-4.32,4.17-9.32,15.16-16.11,25.79-15.63Z"/>
      <path class="cls-4" d="M144.51,251.71c7.24.27,14.05,4.25,18.81,11.77.4.63.76,1.3.98,2.01.38,1.21.38,2.47-.86,3.19-1.44.84-2.67.24-3.43-1.06-1.15-1.95-2.41-3.79-3.99-5.41-5.33-5.45-13.57-7.1-20.28-4.08-1.94.87-3.68,1.98-4.98,3.73-.89,1.19-2.09,1.88-3.47.86-1.53-1.13-1.19-2.59-.32-3.98.8-1.3,1.95-2.27,3.17-3.14,3.56-2.54,8.04-3.91,14.37-3.87Z"/>
      <path class="cls-4" d="M109.19,140c-7.77-.01-14.83-2.23-21.01-6.97-12.67-9.71-15.18-26.83-5.89-39.79,11.2-15.63,35.01-19.12,50.25-7.36,13.74,10.61,15.36,29.71,3.62,42.61-6.76,7.43-16.52,11.59-26.97,11.51ZM109.22,83.74c-6.13.09-13.32,2.73-19.33,8.26-12.68,11.68-10.37,30.85,4.68,39.22,12.41,6.91,28.45,4.26,37.95-6.25,10.06-11.14,8.32-27.19-3.93-35.84-5.19-3.66-10.99-5.44-19.37-5.4Z"/>
      <path class="cls-3" d="M109.22,83.74c8.38-.05,14.18,1.74,19.37,5.4,12.25,8.64,14,24.7,3.93,35.84-9.5,10.51-25.55,13.15-37.95,6.25-15.05-8.38-17.36-27.54-4.68-39.22,6.01-5.53,13.2-8.17,19.33-8.26ZM109.92,129.9c6.56-.18,12.45-2.07,17.39-6.47,8.73-7.76,8.9-20.24.41-28.26-9.5-8.98-26.56-8.6-35.64.79-7.91,8.19-7.53,20,.93,27.65,4.8,4.34,10.56,6.14,16.91,6.28Z"/>
      <path class="cls-4" d="M109.92,129.9c-6.35-.14-12.11-1.94-16.91-6.28-8.46-7.64-8.84-19.46-.93-27.65,9.08-9.39,26.14-9.77,35.64-.79,8.49,8.02,8.32,20.49-.41,28.26-4.94,4.4-10.83,6.29-17.39,6.47ZM110.98,93.65c-6.4.02-11.78,1.96-15.95,6.59-4.91,5.45-4.87,13-.05,18.43,7.72,8.68,23.59,8.28,30.84-.78,4.48-5.6,4.29-12.81-.57-18.08-3.89-4.22-8.87-5.98-14.26-6.16Z"/>
      <path class="cls-1" d="M110.98,93.65c5.39.18,10.37,1.94,14.26,6.16,4.86,5.27,5.05,12.48.57,18.08-7.25,9.06-23.11,9.46-30.84.78-4.83-5.43-4.87-12.97.05-18.43,4.17-4.63,9.55-6.57,15.95-6.59Z"/>
    </g>
  </g>
</svg>