<?xml version="1.0" encoding="UTF-8"?>
<svg id="Layer_2" data-name="Layer 2" xmlns="http://www.w3.org/2000/svg" viewBox="0 0 287.71 200.95">
  <defs>
    <style>
      .cls-1 {
        fill: #fcc513;
      }

      .cls-2 {
        fill: #fff;
      }

      .cls-3 {
        fill: #f5f5ab;
      }

      .cls-4 {
        fill: #010509;
      }

      .cls-5 {
        fill: #efe0d4;
      }

      .cls-6 {
        fill: #112547;
      }

      .cls-7 {
        fill: #030910;
      }
    </style>
  </defs>
  <g id="Layer_1-2" data-name="Layer 1">
    <g>
      <ellipse class="cls-2" cx="68.79" cy="140.03" rx="49.91" ry="44.56"/>
      <ellipse class="cls-2" cx="222.07" cy="140.03" rx="49.91" ry="44.56"/>
      <path class="cls-7" d="M161.65,90.49c1.45-8.41,2.71-16.84,4.22-25.24.87-4.87,3.45-8.38,6.85-11.42,2.1-1.88,2.94-3.66,2.65-6.57-.65-6.45,1.21-8.6,7.71-9.96,5.43-1.14,10.88-2.39,16.46-2.27,5,.11,9.35,1.53,10.8,7.11.26.99.84,1.41,1.65,1.73,1.19.47,2.41.88,3.57,1.41,4.14,1.9,8.21,3.86,10.95,7.82,1.2,1.73,2.87,3.16,4.42,4.63,12.75,12.09,24.11,25.4,34.91,39.21.35.45.76.85,1.16,1.26,20.15,21.07,21.83,53.22,3.1,77.37-19.39,24.99-55.2,32.82-82.66,17.68-19.96-11.01-30.42-28.21-30.79-51.1-.06-3.94-1.75-6.36-4.15-8.82-2.32-2.39-5.2-3.55-8.46-3.36-4.05.24-7.88,1.07-10.24,5.01-.78,1.29-1.1,2.51-1.12,3.98-.48,30.14-23.51,55.99-54.54,61-20.15,3.25-38.3-1.57-53.45-15.42C2.07,163.87-.33,130.01,18.86,105.2c3.67-4.74,6.97-9.71,10.09-14.78,5-8.13,10.45-15.96,15.69-23.92,2.9-4.4,5.85-8.99,10.37-11.79,3.78-2.34,6.54-4.7,7.02-9.46.27-2.65,2.84-3.9,5.37-4.17,6.67-.7,13.36-.8,20.04.07.84.11,1.65.45,2.45.73,3.26,1.11,5.43,3.11,5.39,6.81-.02,2.17.71,3.59,2.86,4.59,5.21,2.41,8.67,6.32,10.89,11.84,4.35,10.84,8.39,21.77,11.7,32.96.43,1.46.9,2.91,1.44,4.65,1.95-1.14,3.62-2.14,5.32-3.11.88-.5,1.03-1.26.92-2.17-.15-1.27-.31-2.55-.36-3.83-.13-3.23.94-5,4.13-5.46,7.76-1.13,15.59-1.62,23.42-.72,2.01.23,3.93.86,4.84,2.99.28,2.6-.87,5.24.3,8.54.78-3.25,1.16-5.83.93-8.48ZM35.33,89.16c-.11.24-.22.48-.32.71.69.2,1.16-.16,1.59-.62,27.35-15.14,53.35-12.95,78.57,6.87-3.65-12.06-7.55-23.01-12.65-33.5-.72-1.49-2.06-2.31-3.32-3.23-9.05-6.64-19.09-7.19-29.74-5.32-8.06,1.41-14.29,5.15-18.76,12-5.05,7.74-10.23,15.4-15.36,23.1ZM224.79,195.98c12.05-.19,27.96-7.32,40.29-21.85,23.23-27.38,16.27-70.58-21.34-85.89-22.83-9.29-50.94-2.68-67.34,15.78-13.51,15.21-18.6,32.83-13.05,52.71,6.62,23.67,28.78,39.42,61.44,39.25ZM74,195.99c12.42-.19,28.45-7.39,40.79-22.13,23.53-28.12,15.35-71.98-22.74-85.9-23.77-8.68-45.76-3.63-63.93,13.94-15.5,14.98-21.05,33.66-15.27,54.74,6.49,23.71,28.71,39.47,61.16,39.34ZM249.79,84.91c-.61-.78-1.22-1.55-1.83-2.33-8.21-10.46-18.52-18.95-27.28-28.9-.82-.93-2.04-1.55-3.14-2.18-12.14-7.02-24.06-5.29-35.72,1.16-6.86,3.8-10.98,9.61-12.26,17.5-2.19,13.5-3.78,27.07-5.16,40.67-.04.42.1.56.74.3,8.74-13.95,21.13-23.68,37.14-28.66,16.04-4.99,31.73-3.79,47.52,2.43ZM158.76,116.34c.47-3.43.81-6.49,1.33-9.52.37-2.13-.58-3.06-2.46-3.75-6.13-2.25-12.44-3.11-18.85-2.13-4.62.71-9.16,2.08-12.87,5.21-.85.71-1.82,1.42-1.1,2.84,1.59,3.11,3.11,6.26,4.68,9.43,9.32-7.07,18.95-7.32,29.27-2.09ZM132.29,128.83c8.72-4.9,17.13-5.5,24.76,2.18,2.4-5.71,1.53-9.48-3.1-11.62-6.46-2.98-12.97-2.7-19.1,1.03-3.42,2.08-3.89,4.08-2.57,8.41ZM155.65,94.17c.46-1.97-1.05-2.21-2.5-2.39-6.24-.73-12.43.4-18.64.61-2.15.07-1.75,1.77-1.64,3.18.13,1.65,1.07,1.68,2.37,1.29,5.87-1.73,11.76-1.12,17.66-.07,2.64.47,2.81.29,2.76-2.62ZM205.65,42.42c-2.62-2.78-5.12-2.86-7.6-2.74-4.97.24-9.85,1.2-14.69,2.25-3.32.72-3.7,1.55-3.01,5.87,7.7-3.93,15.83-5.79,25.3-5.38ZM90.73,49.46c-.62-3.04-2.56-3.36-4.31-3.67-5.78-1.04-11.62-.7-17.42-.26-2.53.19-2.71.78-2.66,4.32,7.97-1.7,15.96-1.92,24.4-.38Z"/>
      <path class="cls-7" d="M68.58,17.16c-.1,1.28-.76,1.96-1.58,2.59-3.12,2.38-5.47,5.33-6.63,9.15-.43,1.43-1.24,2.67-2.85,2.81-1.45.12-2.23-.99-2.95-2.1-2.4-3.65-4.33-7.63-8.4-9.97-1.58-.9-1.53-2.54-.11-3.97,3.68-3.71,6.41-7.92,6.84-13.33.1-1.26.84-2.16,2.11-2.33,1.32-.18,2.12.65,2.59,1.79.49,1.18.84,2.41,1.36,3.58,1.7,3.83,4.05,7.18,7.7,9.4,1.05.64,1.81,1.32,1.94,2.38ZM62.17,17.55c-2.59-2.32-4.42-4.78-6.36-7.21-1.27,1.96-2.41,3.74-3.58,5.5-.47.7-1.14,1.37-.26,2.16,1.94,1.74,3.13,4.16,5.12,6.38,1.43-2.78,3.11-4.67,5.08-6.83Z"/>
      <path class="cls-7" d="M287.71,69.64c-.09,1.21-.8,2.06-1.61,2.87-4.02,3.97-7.52,8.36-10.78,12.97-2.94,4.15-5.87,3.97-7.9-.53-1.39-3.09-2.98-5.27-6.54-6.23-3.28-.88-3.76-6.31-.68-9.32,3.28-3.21,5.86-6.73,7.83-10.87,1.68-3.52,4.28-3.52,6.1-.14,1.06,1.98,1.78,4.14,3.59,5.64,1.97,1.63,3.55,3.79,6.8,2.75,1.92-.61,3.14.78,3.21,2.86ZM272,79.21c1.61-1.97,2.69-3.51,4-4.84,1.62-1.64,1.13-2.63-.44-4.05-4.24-3.85-4.17-3.95-8.04.49-.68.78-1.82,1.25-1.91,2.73,2.56,1.11,4.36,3.26,6.39,5.67Z"/>
      <path class="cls-7" d="M26.71,65.2c-3.33,3.69-4.63,9.3-7.55,14.04-1.14,1.85-4.08,1.63-5.23-.55-2.71-5.13-7.15-7.99-11.95-10.68-2.31-1.3-2.64-3.21-.79-5.07,3.59-3.62,6.85-7.36,9.02-12.08.9-1.97,3.7-1.95,5.25,0,3.15,3.96,5.99,8.16,10.36,10.98.81.52,1.01,1.54.9,3.37ZM16.13,70.26q3.54-5.84-3.15-11.13c-1.35,1.7-2.7,3.4-4.15,5.24,2.5,2.02,4.78,3.85,7.3,5.89Z"/>
      <path class="cls-7" d="M264.79,42.88c-1.35-.08-2.39-.58-2.86-1.72-1.16-2.81-2.97-5.11-5.04-7.31-1.68-1.79-1.45-3.73.84-4.87,3.04-1.53,4.68-3.85,5.78-6.95.81-2.29,2.71-2.58,4.22-.71,2.2,2.75,3.61,6.08,6.35,8.46.69.6.61,1.65,0,2.35-2.83,3.18-5.48,6.48-7.89,9.99-.28.41-.97.53-1.38.75ZM266.23,27.93c-1.41,1.53-2.79,3.03-4.16,4.51,1,1.16,1.45,2.41,2.67,2.97q4.09-4,1.49-7.48Z"/>
      <path class="cls-5" d="M161.65,90.49c.23,2.65-.15,5.23-.93,8.48-1.17-3.29-.02-5.94-.3-8.54.41.02.82.04,1.23.06Z"/>
      <path class="cls-6" d="M224.79,195.98c-32.66.18-54.82-15.57-61.44-39.25-5.56-19.88-.47-37.5,13.05-52.71,16.4-18.46,44.51-25.08,67.34-15.78,37.61,15.31,44.57,58.51,21.34,85.89-12.32,14.53-28.23,21.66-40.29,21.85ZM269.51,139.34c-.25-32.51-28.76-51.63-54.84-47.33-23.57,3.88-42.28,23.9-43.4,47.69-1.54,32.73,26.12,54.23,54.14,50.19,24.81-3.57,44.13-25.46,44.1-50.55Z"/>
      <path class="cls-6" d="M74,195.99c-32.45.13-54.67-15.63-61.16-39.34-5.78-21.09-.22-39.76,15.27-54.74,18.17-17.57,40.16-22.63,63.93-13.94,38.09,13.92,46.27,57.78,22.74,85.9-12.33,14.74-28.37,21.94-40.79,22.13ZM19.63,140.41c.02,10.25,2.94,20.05,9.12,27.93,13.46,17.17,31.2,23.36,52.33,18.68,28.67-6.35,45.43-36.07,36.1-63.16-8.46-24.54-35.76-38.12-61.39-30.53-21.52,6.38-36.19,25.48-36.15,47.08Z"/>
      <path class="cls-5" d="M249.79,84.91c-15.79-6.22-31.48-7.43-47.52-2.43-16.01,4.99-28.4,14.71-37.14,28.66-.64.27-.78.13-.74-.3,1.38-13.6,2.97-27.17,5.16-40.67,1.28-7.9,5.4-13.71,12.26-17.5,11.66-6.45,23.58-8.18,35.72-1.16,1.1.64,2.32,1.25,3.14,2.18,8.76,9.95,19.07,18.43,27.28,28.9.61.78,1.22,1.55,1.83,2.33Z"/>
      <path class="cls-5" d="M35.33,89.16c5.13-7.7,10.31-15.35,15.36-23.1,4.47-6.85,10.7-10.59,18.76-12,10.65-1.87,20.69-1.32,29.74,5.32,1.26.92,2.6,1.75,3.32,3.23,5.1,10.5,9,21.45,12.65,33.5-25.22-19.81-51.23-22-78.56-6.87-.42-.03-.84-.06-1.27-.09Z"/>
      <path class="cls-6" d="M158.76,116.34c-10.32-5.24-19.96-4.99-29.27,2.09-1.57-3.17-3.1-6.32-4.68-9.43-.72-1.42.25-2.12,1.1-2.84,3.72-3.13,8.25-4.51,12.87-5.21,6.41-.98,12.73-.12,18.85,2.13,1.88.69,2.83,1.62,2.46,3.75-.52,3.03-.86,6.09-1.33,9.52Z"/>
      <path class="cls-6" d="M132.29,128.83c-1.32-4.32-.85-6.32,2.57-8.41,6.13-3.73,12.64-4.01,19.1-1.03,4.62,2.14,5.5,5.91,3.1,11.62-7.64-7.69-16.04-7.08-24.76-2.18Z"/>
      <path class="cls-6" d="M155.65,94.17c.06,2.91-.11,3.09-2.76,2.62-5.89-1.05-11.79-1.66-17.66.07-1.3.38-2.25.36-2.37-1.29-.11-1.4-.51-3.1,1.64-3.18,6.21-.21,12.4-1.34,18.64-.61,1.45.17,2.95.42,2.5,2.39Z"/>
      <path class="cls-6" d="M205.65,42.42c-9.47-.41-17.61,1.45-25.3,5.38-.69-4.32-.31-5.16,3.01-5.87,4.85-1.05,9.72-2.01,14.69-2.25,2.48-.12,4.98-.04,7.6,2.74Z"/>
      <path class="cls-6" d="M90.73,49.46c-8.43-1.53-16.43-1.31-24.4.38-.05-3.54.13-4.13,2.66-4.32,5.8-.44,11.64-.78,17.42.26,1.75.31,3.7.64,4.31,3.67Z"/>
      <path class="cls-6" d="M35.33,89.16c.43.03.85.05,1.27.09-.44.47-.91.83-1.6.63.11-.24.22-.48.32-.71Z"/>
      <path class="cls-1" d="M62.17,17.55c-1.98,2.16-3.65,4.05-5.08,6.83-1.99-2.23-3.18-4.64-5.12-6.38-.88-.79-.21-1.46.26-2.16,1.17-1.76,2.31-3.54,3.58-5.5,1.94,2.43,3.77,4.89,6.36,7.21Z"/>
      <path class="cls-7" d="M238,24.08c-.1,1.28-.76,1.96-1.58,2.59-3.12,2.38-5.47,5.33-6.63,9.15-.43,1.43-1.24,2.67-2.85,2.81-1.45.12-2.23-.99-2.95-2.1-2.4-3.65-4.33-7.63-8.4-9.97-1.58-.9-1.53-2.54-.11-3.97,3.68-3.71,6.41-7.92,6.84-13.33.1-1.26.84-2.16,2.11-2.33,1.32-.18,2.12.65,2.59,1.79.49,1.18.84,2.41,1.36,3.58,1.7,3.83,4.05,7.18,7.7,9.4,1.05.64,1.81,1.32,1.94,2.38ZM231.59,24.46c-2.59-2.32-4.42-4.78-6.36-7.21-1.27,1.96-2.41,3.74-3.58,5.5-.47.7-1.14,1.37-.26,2.16,1.94,1.74,3.13,4.16,5.12,6.38,1.43-2.78,3.11-4.67,5.08-6.83Z"/>
      <path class="cls-1" d="M231.59,24.46c-1.98,2.16-3.65,4.05-5.08,6.83-1.99-2.23-3.18-4.64-5.12-6.38-.88-.79-.21-1.46.26-2.16,1.17-1.76,2.31-3.54,3.58-5.5,1.94,2.43,3.77,4.89,6.36,7.21Z"/>
      <path class="cls-1" d="M272.27,81.43c-2.8-3.32-5.28-6.28-8.8-7.81.12-2.04,1.69-2.68,2.63-3.76,5.33-6.12,5.23-5.98,11.07-.67,2.16,1.96,2.83,3.32.6,5.58-1.8,1.82-3.29,3.95-5.5,6.66Z"/>
      <path class="cls-1" d="M16.81,71.79c-3.22-2.59-6.12-4.93-9.31-7.51,1.85-2.34,3.57-4.51,5.29-6.68q8.53,6.74,4.02,14.19Z"/>
      <path class="cls-1" d="M266.23,27.93q2.61,3.48-1.49,7.48c-1.22-.56-1.67-1.81-2.67-2.97,1.37-1.49,2.75-2.98,4.16-4.51Z"/>
      <path class="cls-4" d="M269.51,139.34c.03,25.09-19.29,46.98-44.1,50.55-28.02,4.03-55.68-17.46-54.14-50.19,1.12-23.79,19.83-43.81,43.4-47.69,26.08-4.29,54.59,14.82,54.84,47.33ZM256.18,134.54c1.11,4.62.76,9.17-.62,13.68-.67.4-.83,1.17-.46,1.64.43.55.81-.06,1.04-.5.47-.52,1-.99,1.4-1.56,5.7-8.1,5.5-5.73-.18-13.19-.1-.59-.6-.93-1.05-.92-.42,0-.4.5-.14.85ZM177.14,134.96c1.62-.09,2.28-1.53,3.29-2.42,6.65-5.91,13.88-10.92,22.11-14.37,9.95-4.18,20.26-5.78,30.92-3.48,11.29,2.43,20.38,8.49,27.76,17.28.9,1.08,1.54,2.5,3.34,3.32-.13-1.44-.13-2.44-.32-3.4-3.14-15.89-11.92-27.37-27.24-32.95-26.43-9.62-53.69,7.31-59.83,33.25-.21.89-.84,1.89,0,2.82-.31-.3-.52-.24-.57.18-.01.12.11.36.16.36.37-.01.49-.23.37-.58ZM176.44,148.16c2.1,22.13,21.6,38.41,44.27,37.44,21.02-.91,42.43-19.59,42.61-37.19-20.29,27.1-61.74,26.55-86.88-.24ZM223.76,118.88c-2.84-.44-5.62-.24-8.38.31-14.38,2.84-25.87,10.65-36.03,20.81-1.51,1.51-1.25,2.47,0,3.89,12.03,13.65,27.11,20.31,45.29,19.94.64-.01,1.45.2,1.81-.68-21.87-9.34-19.71-35.25-2.7-44.26Z"/>
      <path class="cls-4" d="M19.63,140.41c-.04-21.6,14.63-40.7,36.15-47.08,25.63-7.59,52.93,5.99,61.39,30.53,9.34,27.09-7.43,56.82-36.1,63.16-21.13,4.68-38.87-1.51-52.33-18.68-6.18-7.88-9.1-17.69-9.12-27.93ZM24.56,137.21c.49-.08.68-.05.75-.12.99-1.02,1.97-2.06,2.94-3.09,7.25-7.65,15.52-13.79,25.53-17.39,10.55-3.79,21.23-4.01,31.85-.58,10.2,3.29,18.9,9.17,26.6,16.58.63.61,1.04,1.75,2.29,1.44-1.08-16.49-16.52-37.79-43.95-38-28.05-.22-45.41,22.18-46.02,41.17ZM25.22,148.04c1.95,16.67,19.07,36.74,45.76,35.82,20.36-.71,40.86-17.17,42.53-34.91-12.57,11.53-27.32,17.01-44.09,16.86-16.85-.16-31.6-5.96-44.2-17.76ZM69.61,118.65c-3.2-.14-5.71.16-8.23.7-13.9,2.96-24.27,11.25-33.27,21.72-1.58,1.83-.34,2.74.79,3.85,7.94,7.78,17.44,12.59,28.26,14.89,4.65.99,9.35,1.45,14.8,1.32-16.68-10.67-16.88-30.26-2.35-42.48ZM103.04,130.94c2.06,8.28.87,15.25-3.54,21.85,4.07-1.36,11.72-7.51,13.73-10.64.8-1.25.04-1.82-.6-2.5-2.71-2.88-5.5-5.68-9.59-8.71Z"/>
      <path class="cls-1" d="M177.17,135.01c-.85-.93-.22-1.93,0-2.82,6.14-25.94,33.4-42.87,59.83-33.25,15.32,5.58,24.1,17.06,27.24,32.95.19.96.19,1.96.32,3.4-1.79-.83-2.43-2.25-3.34-3.32-7.38-8.79-16.47-14.85-27.76-17.28-10.66-2.29-20.97-.69-30.92,3.48-8.22,3.45-15.46,8.46-22.11,14.37-1.01.9-1.67,2.33-3.29,2.42l.04.05Z"/>
      <path class="cls-1" d="M176.44,148.16c25.14,26.8,66.59,27.34,86.88.24-.18,17.6-21.59,36.29-42.61,37.19-22.67.98-42.17-15.31-44.27-37.44Z"/>
      <path class="cls-5" d="M255.56,148.22c1.38-4.51,1.72-9.06.62-13.68.4.02.79.04,1.19.06,5.68,7.46,5.88,5.1.18,13.19-.4.57-.93,1.04-1.4,1.55-.19-.38-.39-.76-.59-1.13Z"/>
      <path class="cls-6" d="M255.56,148.22c.2.38.4.75.59,1.13-.24.44-.62,1.05-1.05.5-.37-.47-.21-1.23.46-1.64Z"/>
      <path class="cls-6" d="M257.36,134.6c-.39-.02-.79-.04-1.19-.06-.26-.35-.28-.85.14-.85.45-.01.95.32,1.05.92Z"/>
      <path class="cls-3" d="M177.14,134.96c.12.36,0,.57-.37.58-.05,0-.18-.24-.16-.36.05-.42.26-.48.58-.18,0,0-.04-.05-.04-.05Z"/>
      <path class="cls-1" d="M24.56,137.21c.62-19,17.98-41.39,46.02-41.17,27.43.21,42.87,21.51,43.95,38-1.25.31-1.66-.83-2.29-1.44-7.7-7.41-16.4-13.29-26.6-16.58-10.62-3.42-21.3-3.21-31.85.58-10.01,3.6-18.28,9.74-25.53,17.39-.98,1.03-1.95,2.07-2.94,3.09-.07.08-.26.05-.75.12Z"/>
      <path class="cls-1" d="M25.22,148.04c12.61,11.8,27.35,17.6,44.2,17.76,16.77.16,31.52-5.33,44.09-16.86-1.68,17.74-22.18,34.21-42.53,34.91-26.69.92-43.81-19.15-45.76-35.82Z"/>
    </g>
  </g>
</svg>